<svg width="131" height="131" viewBox="0 0 131 131" fill="none" xmlns="http://www.w3.org/2000/svg">
<path d="M38.8906 24.5625C40.1576 24.5574 41.3943 24.9496 42.4268 25.6839C43.4593 26.4183 44.2355 27.4578 44.6464 28.6563H61.4062V36.8438H44.0078L42.7265 40.9375H57.3125C67.9972 40.9375 73.3682 46.6934 75.3496 49.125H89.166C93.7906 46.4407 99.0434 45.0283 104.391 45.0313C113.233 45.0313 120.512 48.4864 120.512 48.4864L116.926 55.9043C116.926 55.9043 111.076 53.2188 104.391 53.2188C101.079 53.2188 97.9634 54.2259 95.6914 55.1388L99.2734 62.5526C101.592 61.8179 104.006 61.4317 106.438 61.4063C119.984 61.4063 131 72.4226 131 85.9688C131 99.515 119.984 110.531 106.438 110.531C100.637 110.533 95.0237 108.477 90.5965 104.729C86.1694 100.981 83.2153 95.784 82.2598 90.0625H68.0586C64.9555 90.0625 62.0121 88.2572 60.6366 85.4571H60.7676L56.2891 76.3731C49.4771 73.2413 43.9259 67.8048 40.041 62.6876C38.9725 61.2794 38.0596 59.9858 37.2286 58.7167L28.5293 87.1191L20.5957 84.8185L25.2011 69.7207C24.9801 69.7043 24.7877 69.5938 24.5625 69.5938C15.5276 69.5938 8.1875 76.9339 8.1875 85.9688C8.1875 95.0037 15.5276 102.344 24.5625 102.344C27.761 102.339 30.8883 101.399 33.5587 99.6383C36.2292 97.8778 38.326 95.3744 39.5908 92.4365C40.8556 89.4987 41.233 86.255 40.6765 83.1053C40.12 79.9555 38.6539 77.0375 36.4589 74.711L39.0175 66.1387C42.1446 68.4148 44.6899 71.3973 46.4463 74.8432C48.2027 78.2891 49.1205 82.1011 49.125 85.9688C49.125 99.515 38.1087 110.531 24.5625 110.531C11.0163 110.531 0 99.515 0 85.9688C0 72.4226 11.0163 61.4063 24.5625 61.4063C25.6327 61.4225 26.7007 61.5087 27.7597 61.6642L35.3086 36.8438H28.6562V24.5625H38.8906ZM57.3125 49.125H40.9375C42.6004 52.117 44.4818 54.9822 46.5664 57.6974C50.3736 62.6876 55.6668 67.9931 60.7676 69.8517L62.4297 70.3634L63.0683 71.8986L68.0586 81.875H106.438V90.0625H90.7011C92.5269 97.1161 98.8272 102.344 106.438 102.344C115.472 102.344 122.812 95.0037 122.812 85.9688C122.812 76.9339 115.472 69.5938 106.438 69.5938C100.407 69.5938 95.2124 72.9056 92.3632 77.7813H83.2832C84.9512 73.1166 87.9819 69.0605 91.9825 66.1387L87.5039 57.3125H71.5137L70.2324 55.5195C70.2324 55.5195 66.2655 49.125 57.3125 49.125Z" fill="#D8D2C2"/>
</svg>
